<svg width="32" height="32" viewBox="0 0 32 32" fill="none" xmlns="http://www.w3.org/2000/svg">
<path d="M14.6667 5.33334H5.33332C4.62608 5.33334 3.9478 5.61429 3.4477 6.11439C2.94761 6.61449 2.66666 7.29276 2.66666 8.00001V26.6667C2.66666 27.3739 2.94761 28.0522 3.4477 28.5523C3.9478 29.0524 4.62608 29.3333 5.33332 29.3333H24C24.7072 29.3333 25.3855 29.0524 25.8856 28.5523C26.3857 28.0522 26.6667 27.3739 26.6667 26.6667V17.3333M24.6667 3.33334C25.1971 2.80291 25.9165 2.50491 26.6667 2.50491C27.4168 2.50491 28.1362 2.80291 28.6667 3.33334C29.1971 3.86377 29.4951 4.58319 29.4951 5.33334C29.4951 6.08349 29.1971 6.80291 28.6667 7.33334L16 20L10.6667 21.3333L12 16L24.6667 3.33334Z" stroke="#1E1E1E" stroke-width="3" stroke-linecap="round" stroke-linejoin="round"/>
</svg>
