<svg width="21" height="21" viewBox="0 0 21 21" fill="none" xmlns="http://www.w3.org/2000/svg">
<g opacity="0.9" clip-path="url(#clip0_163_561)">
<path d="M6.125 9.625V6.125C6.125 4.96468 6.58594 3.85188 7.40641 3.03141C8.22688 2.21094 9.33968 1.75 10.5 1.75C11.6603 1.75 12.7731 2.21094 13.5936 3.03141C14.4141 3.85188 14.875 4.96468 14.875 6.125V9.625M4.375 9.625H16.625C17.5915 9.625 18.375 10.4085 18.375 11.375V17.5C18.375 18.4665 17.5915 19.25 16.625 19.25H4.375C3.4085 19.25 2.625 18.4665 2.625 17.5V11.375C2.625 10.4085 3.4085 9.625 4.375 9.625Z" stroke="#2E241F" stroke-width="3.5" stroke-linecap="round" stroke-linejoin="round"/>
</g>
<defs>
<clipPath id="clip0_163_561">
<rect width="21" height="21" fill="white"/>
</clipPath>
</defs>
</svg>
